# xmcd CD database file
#
# Track frame offsets:
#	150
#	11439
#	25520
#	38720
#	54315
#	68479
#	88345
#	102089
#	111522
#	129567
#	144734
#	155407
#
# Disc length: 2211 seconds
#
# Revision: 0
# Processed by: cddbd v1.5.2PL0 Copyright (c) Steve Scherf et al.
# Submitted via: CDex 1.50beta10
#
DISCID=9608a10c
DTITLE=Billy Dee - Satisfied Mind
DYEAR=1900
DGENRE=Country
TTITLE0=Things
TTITLE1=The Power Of Love
TTITLE2=If I Said You Had A Beautiful Body
TTITLE3=Four Strong Winds
TTITLE4=I Don't Want To Talk About It
TTITLE5=Don't You Think
TTITLE6=The Last Farewell
TTITLE7=Beautiful Noise
TTITLE8=The Fields Of Athenry
TTITLE9=For The Good Times
TTITLE10=Everyday
TTITLE11=Satisfied Mind
EXTD=
EXTT0=
EXTT1=
EXTT2=
EXTT3=
EXTT4=
EXTT5=
EXTT6=
EXTT7=
EXTT8=
EXTT9=
EXTT10=
EXTT11=
PLAYORDER=
